<?xml version="1.0" encoding="UTF-8"?>
<svg version="1.1" xmlns="http://www.w3.org/2000/svg" width="512" height="512">
<path d="M0 0 C168.96 0 337.92 0 512 0 C512 168.96 512 337.92 512 512 C343.04 512 174.08 512 0 512 C0 343.04 0 174.08 0 0 Z " fill="#550055" transform="translate(0,0)"/>
<path d="M0 0 C0.63728027 0.34643555 1.27456055 0.69287109 1.93115234 1.04980469 C11.50675799 6.27634 19.26866554 12.29202304 27 20 C28.30517578 21.29744141 28.30517578 21.29744141 29.63671875 22.62109375 C30.41660156 23.40613281 31.19648438 24.19117188 32 25 C32.55042969 25.55300781 33.10085938 26.10601562 33.66796875 26.67578125 C47.19908336 41.25042655 56.87000083 61.42707188 60 81 C60.13245117 81.79825195 60.26490234 82.59650391 60.40136719 83.41894531 C62.76479282 98.00845141 63.45491044 112.24099935 63 127 C62.98453125 127.71140137 62.9690625 128.42280273 62.953125 129.15576172 C62.33180672 155.20582513 56.51188318 181.6013719 45 205 C44.53207031 205.96244629 44.53207031 205.96244629 44.0546875 206.94433594 C39.58820005 216.02710158 34.44724555 224.15259507 28 232 C26.91332031 233.35158203 26.91332031 233.35158203 25.8046875 234.73046875 C3.89573003 260.46421032 -29.85709821 273.58211165 -62.90991211 276.4753418 C-68.18604247 276.88022286 -73.46747868 277.19212033 -78.75 277.5 C-82.69953223 277.74118491 -86.64865237 277.98860568 -90.59765625 278.23828125 C-91.57902054 278.29965775 -92.56038483 278.36103424 -93.57148743 278.42427063 C-99.33092802 278.79453265 -105.06828388 279.25993495 -110.80859375 279.85546875 C-131.66915828 281.97445686 -152.42466686 282.27093119 -173.375 282.25 C-174.10928097 282.2496664 -174.84356194 282.24933281 -175.60009384 282.24898911 C-179.86748187 282.24640229 -184.1347317 282.2357826 -188.40206337 282.21339226 C-190.34853263 282.20338166 -192.29501749 282.19656609 -194.24150085 282.18983459 C-199.92364771 282.14433252 -205.40523627 282.02885097 -211 281 C-208.53114365 278.20695039 -205.83803676 276.73999297 -202.5625 275 C-193.47451818 269.78159682 -184.46206489 263.24969061 -181 253 C-180.48218942 250.32103713 -180.06992423 247.75460147 -179.76269531 245.05493164 C-179.66752373 244.28773489 -179.57235214 243.52053814 -179.47429657 242.730093 C-179.16347221 240.1872361 -178.8698937 237.64276555 -178.578125 235.09765625 C-178.4728373 234.20788652 -178.36754959 233.3181168 -178.25907135 232.40138435 C-175.66830076 210.49446235 -173.81854741 188.52226215 -172.00646973 166.53979492 C-171.40209299 159.22916649 -170.78517816 151.91958237 -170.16973877 144.60987854 C-169.84490587 140.75152319 -169.52340197 136.89291474 -169.20477295 133.03404236 C-169.05938125 131.28758629 -168.91397592 129.54113135 -168.76855469 127.79467773 C-168.67352158 126.63001228 -168.67352158 126.63001228 -168.5765686 125.44181824 C-168.17195034 120.60801228 -167.62288741 115.81061458 -167 111 C-165.74142865 97.33380071 -165.84641388 83.49372974 -165.76882935 69.78112793 C-165.75647444 67.87426783 -165.73912533 65.96743219 -165.71627808 64.06066895 C-165.46874195 41.91947726 -166.16840146 21.63231568 -182.10961914 4.87353516 C-192.0591335 -5.49486604 -192.0591335 -5.49486604 -203.3828125 -14.21484375 C-204.67832031 -15.09849609 -204.67832031 -15.09849609 -206 -16 C-206 -16.66 -206 -17.32 -206 -18 C-199.08578963 -17.470841 -192.21412906 -16.67614325 -185.3359375 -15.80859375 C-183.53516128 -15.58394405 -181.73437992 -15.35933553 -179.93359375 -15.13476562 C-177.16254969 -14.78868998 -174.39203664 -14.43970476 -171.62255859 -14.08129883 C-154.74995191 -11.90559682 -139.18021251 -10.86360956 -122.375 -14.3125 C-119.94472752 -14.77462062 -117.51372199 -15.23290134 -115.08203125 -15.6875 C-113.29466553 -16.02394531 -113.29466553 -16.02394531 -111.47119141 -16.3671875 C-72.47453916 -23.47643793 -35.00692519 -19.66180524 0 0 Z " fill="#FEFDFE" transform="translate(331,125)"/>
<path d="M0 0 C1.78580542 1.22851524 3.55856053 2.47640389 5.3125 3.75 C6.34375 4.4925 7.375 5.235 8.4375 6 C12.85229807 10.22285033 16.5761732 14.92554995 20.3125 19.75 C20.92351562 20.53375 21.53453125 21.3175 22.1640625 22.125 C43.14813628 50.4870358 48.06060852 86.54057733 43.3359375 120.80078125 C37.37355259 158.05980458 24.41259918 199.73544045 -5.6875 224.75 C-8.58400676 226.78194338 -11.44385394 228.35440376 -14.6875 229.75 C-15.31269531 230.06324219 -15.93789062 230.37648438 -16.58203125 230.69921875 C-20.42738807 232.55068685 -23.48776773 233.71243864 -27.6875 232.75 C-38.38469575 224.81644502 -40.41940638 208.97966387 -42.6875 196.75 C-42.81898438 196.06470215 -42.95046875 195.3794043 -43.0859375 194.67333984 C-43.50375158 192.49213353 -43.91030712 190.30913756 -44.3125 188.125 C-44.4973999 187.14116333 -44.4973999 187.14116333 -44.68603516 186.13745117 C-46.45828492 176.15230673 -46.8420047 165.9839408 -47.22265625 155.8671875 C-47.26585999 154.75398132 -47.30906372 153.64077515 -47.35357666 152.49383545 C-48.18744618 130.51956915 -48.89405039 108.54371836 -48.98605347 86.55230713 C-48.99520196 84.46809169 -49.00913705 82.3838906 -49.02835083 80.29974365 C-49.24711 53.72606109 -46.47206093 25.15574255 -27.6875 4.75 C-18.74586398 -4.15858007 -11.32298855 -7.07109081 0 0 Z " fill="#550055" transform="translate(261.6875,134.25)"/>
<path d="M0 0 C0.33 0 0.66 0 1 0 C1 13.53 1 27.06 1 41 C-12.53 41 -26.06 41 -40 41 C-36.77794772 39.38897386 -33.66489916 38.09649079 -30.3125 36.8125 C-16.32964928 30.99481758 -7.86955879 20.70813891 -2 7 C-1.17794005 4.65968578 -0.55034658 2.42152494 0 0 Z " fill="#000000" transform="translate(511,471)"/>
<path d="M0 0 C1.61102614 3.22205228 2.90350921 6.33510084 4.1875 9.6875 C10.00518242 23.67035072 20.29186109 32.13044121 34 38 C36.34031422 38.82205995 38.57847506 39.44965342 41 40 C41 40.33 41 40.66 41 41 C27.47 41 13.94 41 0 41 C0 27.47 0 13.94 0 0 Z " fill="#000000" transform="translate(0,471)"/>
<path d="M0 0 C13.53 0 27.06 0 41 0 C41 13.53 41 27.06 41 41 C39.38897386 37.77794772 38.09649079 34.66489916 36.8125 31.3125 C30.99481758 17.32964928 20.70813891 8.86955879 7 3 C4.65968578 2.17794005 2.42152494 1.55034658 0 1 C0 0.67 0 0.34 0 0 Z " fill="#000000" transform="translate(471,0)"/>
<path d="M0 0 C13.53 0 27.06 0 41 0 C37.77794772 1.61102614 34.66489916 2.90350921 31.3125 4.1875 C17.32964928 10.00518242 8.86955879 20.29186109 3 34 C2.17794005 36.34031422 1.55034658 38.57847506 1 41 C0.67 41 0.34 41 0 41 C0 27.47 0 13.94 0 0 Z " fill="#000000" transform="translate(0,0)"/>
</svg>
